<svg xmlns="http://www.w3.org/2000/svg" xmlns:xlink="http://www.w3.org/1999/xlink" width="1920" zoomAndPan="magnify" viewBox="0 0 1440 809.999993" height="1080" preserveAspectRatio="xMidYMid meet" version="1.0"><defs><clipPath id="9571f33a68"><path d="M 137.898438 0 L 1253.148438 0 L 1253.148438 810 L 137.898438 810 Z M 137.898438 0 " clip-rule="nonzero"/></clipPath></defs><g clip-path="url(#9571f33a68)"><path fill="#ffffff" d="M 706.972656 -801.027344 C 337.574219 -801.027344 37.933594 -496.0625 37.933594 -120.101562 L 37.933594 831.902344 C 37.933594 1207.863281 337.574219 1512.828125 706.972656 1512.828125 C 1076.375 1512.828125 1376.019531 1207.863281 1376.019531 831.902344 L 1376.019531 -120.101562 C 1374.433594 -496.0625 1074.789062 -801.027344 706.972656 -801.027344 Z M 1322.113281 831.902344 C 1322.113281 1177.207031 1046.253906 1457.96875 706.972656 1457.96875 C 367.699219 1457.96875 91.835938 1177.207031 91.835938 831.902344 L 91.835938 -120.101562 C 91.835938 -465.40625 367.699219 -746.167969 706.972656 -746.167969 C 1046.253906 -746.167969 1322.113281 -465.40625 1322.113281 -120.101562 Z M 1322.113281 831.902344 " fill-opacity="1" fill-rule="nonzero"/></g><path fill="#ffffff" d="M 499.296875 8.984375 L 930.527344 531.777344 L 1187.363281 220.363281 L 978.089844 8.984375 Z M 903.574219 62.230469 L 746.621094 221.972656 L 615.03125 62.230469 Z M 930.527344 446.261719 L 779.914062 263.925781 L 966.992188 73.527344 L 1112.847656 221.972656 Z M 930.527344 446.261719 " fill-opacity="1" fill-rule="nonzero"/><path fill="#ffffff" d="M 226.601562 220.359375 L 706.980469 804.46875 L 889.300781 583.414062 L 424.777344 18.664062 Z M 706.980469 718.953125 L 297.945312 223.589844 L 420.019531 99.339844 L 817.957031 583.414062 Z M 706.980469 718.953125 " fill-opacity="1" fill-rule="nonzero"/></svg>