<svg xmlns="http://www.w3.org/2000/svg" xmlns:xlink="http://www.w3.org/1999/xlink" width="1640" zoomAndPan="magnify" viewBox="0 0 1230 637.499986" height="850" preserveAspectRatio="xMidYMid meet" version="1.0"><defs><clipPath id="bef7ea98eb"><path d="M 0.480469 0 L 1229.515625 0 L 1229.515625 500 L 0.480469 500 Z M 0.480469 0 " clip-rule="nonzero"/></clipPath><clipPath id="fc10dbc83e"><path d="M 30.738281 -173.867188 L 1258.054688 -66.132812 L 1198.945312 607.246094 L -28.371094 499.515625 Z M 30.738281 -173.867188 " clip-rule="nonzero"/></clipPath><clipPath id="75fcabadb1"><path d="M 38.976562 -267.734375 L 1266.292969 -160 L 1198.925781 607.445312 L -28.386719 499.710938 Z M 38.976562 -267.734375 " clip-rule="nonzero"/></clipPath><clipPath id="60044443b8"><path d="M 38.976562 -267.734375 L 1266.292969 -160 L 1198.925781 607.445312 L -28.386719 499.710938 Z M 38.976562 -267.734375 " clip-rule="nonzero"/></clipPath><clipPath id="5099d75ee8"><path d="M 0.480469 0 L 112.386719 0 L 112.386719 233.050781 L 0.480469 233.050781 Z M 0.480469 0 " clip-rule="nonzero"/></clipPath></defs><g clip-path="url(#bef7ea98eb)"><g clip-path="url(#fc10dbc83e)"><g clip-path="url(#75fcabadb1)"><g clip-path="url(#60044443b8)"><path fill="#ffffff" d="M 650.359375 404.007812 C 836.230469 396.351562 1037.597656 146.574219 1247.234375 57.105469 L 1266.292969 -160 L 38.976562 -267.730469 L -28.386719 499.710938 C -28.386719 499.710938 77.890625 505.734375 190.828125 448.488281 C 321.210938 382.398438 464.488281 411.664062 650.359375 404.007812 Z M 650.359375 404.007812 " fill-opacity="1" fill-rule="nonzero"/></g></g></g></g><g clip-path="url(#5099d75ee8)"><path fill="#ffffff" d="M -78.710938 -31.851562 L 112.386719 -31.851562 L 112.386719 233.152344 L -78.710938 233.152344 Z M -78.710938 -31.851562 " fill-opacity="1" fill-rule="nonzero"/></g></svg>